<svg width="48" height="48" viewBox="0 0 48 48" fill="none" xmlns="http://www.w3.org/2000/svg">
<path d="M23.95 44H24C31.718 44 38 37.72 38 30V18C38 10.318 31.746 4.052 24.038 4H23.918C16.238 4.044 10 10.314 10 18V30C10 37.72 16.258 44 23.95 44ZM14 18C14.0037 15.3542 15.0543 12.8173 16.9224 10.9436C18.7905 9.06988 21.3242 8.01162 23.97 8C29.5 8.012 34 12.498 34 18V30C34 35.514 29.514 40 24 40H23.95C18.372 40 14 35.608 14 30V18Z" fill="#3F4756"/>
<path d="M22 12H26V24H22V12Z" fill="#3F4756"/>
</svg>
